<mxfile host="app.diagrams.net" modified="2024-02-07T03:00:03.440Z" agent="Mozilla/5.0 (Windows NT 10.0; Win64; x64) AppleWebKit/537.36 (KHTML, like Gecko) Chrome/120.0.0.0 Safari/537.36" etag="SqUK2uJHrgg-k0gykCJX" version="23.1.1" type="github">
  <diagram name="第 1 页" id="wcXFdS2mSCeuYjx8Xm_4">
    <mxGraphModel dx="504" dy="344" grid="1" gridSize="10" guides="1" tooltips="1" connect="1" arrows="1" fold="1" page="1" pageScale="1" pageWidth="827" pageHeight="1169" math="0" shadow="0">
      <root>
        <mxCell id="0" />
        <mxCell id="1" parent="0" />
        <mxCell id="dMKvnlfOrxEBAoyZr1T4-1" value="Image" style="rounded=1;whiteSpace=wrap;html=1;" vertex="1" parent="1">
          <mxGeometry x="70" y="360" width="60" height="40" as="geometry" />
        </mxCell>
        <mxCell id="dMKvnlfOrxEBAoyZr1T4-2" value="" style="endArrow=classic;html=1;rounded=0;" edge="1" parent="1">
          <mxGeometry width="50" height="50" relative="1" as="geometry">
            <mxPoint x="130" y="379.5" as="sourcePoint" />
            <mxPoint x="180" y="379.5" as="targetPoint" />
          </mxGeometry>
        </mxCell>
        <mxCell id="dMKvnlfOrxEBAoyZr1T4-3" value="ATSS RPN" style="rounded=1;whiteSpace=wrap;html=1;" vertex="1" parent="1">
          <mxGeometry x="180" y="352.5" width="110" height="55" as="geometry" />
        </mxCell>
        <mxCell id="dMKvnlfOrxEBAoyZr1T4-4" value="RoiAlign" style="rounded=1;whiteSpace=wrap;html=1;" vertex="1" parent="1">
          <mxGeometry x="340" y="230" width="120" height="70" as="geometry" />
        </mxCell>
        <mxCell id="dMKvnlfOrxEBAoyZr1T4-5" value="" style="endArrow=classic;html=1;rounded=0;" edge="1" parent="1">
          <mxGeometry width="50" height="50" relative="1" as="geometry">
            <mxPoint x="290" y="379.8" as="sourcePoint" />
            <mxPoint x="340" y="379.8" as="targetPoint" />
          </mxGeometry>
        </mxCell>
      </root>
    </mxGraphModel>
  </diagram>
</mxfile>
